@startuml StateTransitionDiagram_leader
 
[*] --> インターホン押下待ち : / インターホン押下カウンタ = 0
インターホン押下待ち --> 点灯リクエスト送信 : インターホン押下カウンタ\n>= 100[回]
点灯リクエスト送信 --> ハイパワーLED点灯 : / LEDタイマ = 0
ハイパワーLED点灯 --> ハイパワーLED消灯 : LEDタイマ >= 300[ms]\n/ LEDタイマ = 0
ハイパワーLED消灯 --> インターホン押下待ち :  LEDタイマ >= 300[ms]\n/ インターホン押下カウンタ = 0

インターホン押下待ち: do / インターホン親機A接点監視
インターホン押下待ち: do / インターホン押下カウンタ更新

点灯リクエスト送信: entry / 子機1へ点灯リクエスト送信
点灯リクエスト送信: entry / 子機2へ点灯リクエスト送信
点灯リクエスト送信: entry / 子機3へ点灯リクエスト送信

ハイパワーLED点灯: entry / ハイパワーLED点灯処理
ハイパワーLED点灯: do / LEDタイマ更新

ハイパワーLED消灯: entry / ハイパワーLED消灯処理
ハイパワーLED消灯: do / LEDタイマ更新

@enduml